<svg xmlns="http://www.w3.org/2000/svg" width="800" height="500" viewBox="0 0 800 500">
  <defs>
    <linearGradient id="bg" x1="0%" y1="0%" x2="100%" y2="100%">
      <stop offset="0%" style="stop-color:#0a0e1a"/>
      <stop offset="100%" style="stop-color:#0d1530"/>
    </linearGradient>
    <linearGradient id="teal" x1="0%" y1="0%" x2="100%" y2="0%">
      <stop offset="0%" style="stop-color:#00d4aa"/>
      <stop offset="100%" style="stop-color:#0099cc"/>
    </linearGradient>
    <linearGradient id="purple" x1="0%" y1="0%" x2="100%" y2="0%">
      <stop offset="0%" style="stop-color:#8b5cf6"/>
      <stop offset="100%" style="stop-color:#6366f1"/>
    </linearGradient>
    <linearGradient id="amber" x1="0%" y1="0%" x2="100%" y2="0%">
      <stop offset="0%" style="stop-color:#f59e0b"/>
      <stop offset="100%" style="stop-color:#ef4444"/>
    </linearGradient>
    <linearGradient id="green" x1="0%" y1="0%" x2="100%" y2="0%">
      <stop offset="0%" style="stop-color:#10b981"/>
      <stop offset="100%" style="stop-color:#06b6d4"/>
    </linearGradient>
    <linearGradient id="sidebar" x1="0%" y1="0%" x2="100%" y2="0%">
      <stop offset="0%" style="stop-color:#0c1220"/>
      <stop offset="100%" style="stop-color:#111827"/>
    </linearGradient>
    <filter id="glow" x="-20%" y="-20%" width="140%" height="140%">
      <feGaussianBlur stdDeviation="3" result="blur"/>
      <feMerge><feMergeNode in="blur"/><feMergeNode in="SourceGraphic"/></feMerge>
    </filter>
    <filter id="glow-strong">
      <feGaussianBlur stdDeviation="6" result="blur"/>
      <feMerge><feMergeNode in="blur"/><feMergeNode in="SourceGraphic"/></feMerge>
    </filter>
  </defs>

  <!-- Background -->
  <rect width="800" height="500" fill="url(#bg)"/>
  
  <!-- Ambient glows -->
  <circle cx="150" cy="250" r="120" fill="#00d4aa" opacity="0.04"/>
  <circle cx="650" cy="150" r="100" fill="#8b5cf6" opacity="0.05"/>
  <circle cx="400" cy="480" r="150" fill="#0099cc" opacity="0.04"/>

  <!-- Sidebar -->
  <rect x="0" y="0" width="160" height="500" fill="url(#sidebar)"/>
  <rect x="159" y="0" width="1" height="500" fill="#1e2d45" opacity="0.8"/>

  <!-- Logo -->
  <rect x="18" y="18" width="32" height="32" rx="8" fill="url(#teal)"/>
  <text x="34" y="40" font-family="monospace" font-size="16" fill="white" text-anchor="middle" font-weight="bold">C</text>
  <text x="62" y="34" font-family="Arial, sans-serif" font-size="11" font-weight="700" fill="white">Collab</text>
  <text x="62" y="46" font-family="Arial, sans-serif" font-size="9" fill="#00d4aa">Hub</text>

  <!-- Nav divider -->
  <rect x="20" y="64" width="120" height="1" fill="#1e2d45"/>

  <!-- Nav Items -->
  <!-- Dashboard (active) -->
  <rect x="12" y="74" width="136" height="32" rx="8" fill="#00d4aa" opacity="0.15"/>
  <rect x="12" y="74" width="3" height="32" rx="2" fill="url(#teal)"/>
  <rect x="26" y="86" width="12" height="8" rx="2" fill="#00d4aa"/>
  <text x="46" y="95" font-family="Arial, sans-serif" font-size="11" fill="#00d4aa" font-weight="600">Dashboard</text>

  <!-- Projects -->
  <circle cx="32" cy="127" r="5" fill="none" stroke="#5a7a9a" stroke-width="1.5"/>
  <text x="46" y="131" font-family="Arial, sans-serif" font-size="11" fill="#5a7a9a">Projects</text>

  <!-- Tasks -->
  <rect x="27" y="151" width="10" height="10" rx="2" fill="none" stroke="#5a7a9a" stroke-width="1.5"/>
  <text x="46" y="160" font-family="Arial, sans-serif" font-size="11" fill="#5a7a9a">Tasks</text>

  <!-- Team -->
  <circle cx="32" cy="186" r="5" fill="none" stroke="#5a7a9a" stroke-width="1.5"/>
  <circle cx="32" cy="186" r="2.5" fill="#5a7a9a"/>
  <text x="46" y="190" font-family="Arial, sans-serif" font-size="11" fill="#5a7a9a">Team</text>

  <!-- Messages -->
  <rect x="27" y="206" width="10" height="8" rx="2" fill="none" stroke="#5a7a9a" stroke-width="1.5"/>
  <text x="46" y="215" font-family="Arial, sans-serif" font-size="11" fill="#5a7a9a">Messages</text>
  <rect x="135" y="208" width="14" height="10" rx="5" fill="#ef4444"/>
  <text x="142" y="216.5" font-family="Arial, sans-serif" font-size="7" fill="white" text-anchor="middle" font-weight="bold">3</text>

  <!-- Team Avatars bottom -->
  <text x="20" y="440" font-family="Arial, sans-serif" font-size="9" fill="#5a7a9a" font-weight="600" letter-spacing="1">TEAM</text>
  <circle cx="32" cy="460" r="11" fill="#6366f1"/>
  <text x="32" y="464.5" font-family="Arial, sans-serif" font-size="9" fill="white" text-anchor="middle" font-weight="bold">AK</text>
  <circle cx="56" cy="460" r="11" fill="#10b981"/>
  <text x="56" y="464.5" font-family="Arial, sans-serif" font-size="9" fill="white" text-anchor="middle" font-weight="bold">SR</text>
  <circle cx="80" cy="460" r="11" fill="#f59e0b"/>
  <text x="80" y="464.5" font-family="Arial, sans-serif" font-size="9" fill="white" text-anchor="middle" font-weight="bold">MJ</text>
  <circle cx="104" cy="460" r="11" fill="#8b5cf6"/>
  <text x="104" y="464.5" font-family="Arial, sans-serif" font-size="9" fill="white" text-anchor="middle" font-weight="bold">LP</text>
  <circle cx="128" cy="460" r="11" fill="#ef4444"/>
  <text x="128" y="464.5" font-family="Arial, sans-serif" font-size="9" fill="white" text-anchor="middle" font-weight="bold">+2</text>

  <!-- Main Content Area -->
  <!-- Header Bar -->
  <rect x="160" y="0" width="640" height="52" fill="#0b1220" opacity="0.9"/>
  <rect x="160" y="51" width="640" height="1" fill="#1e2d45"/>
  <text x="180" y="30" font-family="Arial, sans-serif" font-size="14" font-weight="700" fill="white">Project Kanban Board</text>
  <text x="180" y="44" font-family="Arial, sans-serif" font-size="9" fill="#5a7a9a">Sprint 4  ·  Apr 2024  ·  FastAPI + React + TypeScript</text>

  <!-- Search bar -->
  <rect x="520" y="14" width="140" height="24" rx="12" fill="#1e2d45" opacity="0.8"/>
  <text x="560" y="30" font-family="Arial, sans-serif" font-size="10" fill="#5a7a9a">Search tasks...</text>

  <!-- Add Task button -->
  <rect x="672" y="14" width="80" height="24" rx="12" fill="url(#teal)"/>
  <text x="712" y="30" font-family="Arial, sans-serif" font-size="10" fill="white" text-anchor="middle" font-weight="700">+ New Task</text>

  <!-- ============ KANBAN COLUMNS ============ -->

  <!-- Column 1: To Do -->
  <rect x="172" y="62" width="196" height="420" rx="10" fill="#0d1525" opacity="0.6"/>
  <rect x="172" y="62" width="196" height="36" rx="10" fill="rgba(255,255,255,0.03)"/>
  <!-- Column header -->
  <circle cx="194" cy="80" r="5" fill="#5a7a9a"/>
  <text x="206" y="84" font-family="Arial, sans-serif" font-size="11" font-weight="700" fill="#c0cfe0">TO DO</text>
  <rect x="330" y="72" width="22" height="16" rx="8" fill="#1e2d45"/>
  <text x="341" y="83.5" font-family="Arial, sans-serif" font-size="9" fill="#5a7a9a" text-anchor="middle">4</text>

  <!-- Task Card 1a -->
  <rect x="182" y="108" width="176" height="90" rx="8" fill="#131e30"/>
  <rect x="182" y="108" width="3" height="90" rx="2" fill="url(#purple)"/>
  <text x="196" y="126" font-family="Arial, sans-serif" font-size="10" font-weight="700" fill="white">API Authentication</text>
  <text x="196" y="140" font-family="Arial, sans-serif" font-size="9" fill="#5a7a9a">JWT token refresh</text>
  <text x="196" y="152" font-family="Arial, sans-serif" font-size="9" fill="#5a7a9a">flow + middleware</text>
  <rect x="196" y="162" width="46" height="14" rx="7" fill="#8b5cf620"/>
  <text x="219" y="172" font-family="Arial, sans-serif" font-size="8" fill="#8b5cf6" text-anchor="middle">Backend</text>
  <circle cx="338" cy="170" r="8" fill="#6366f1"/>
  <text x="338" y="173.5" font-family="Arial, sans-serif" font-size="7" fill="white" text-anchor="middle">AK</text>

  <!-- Task Card 1b -->
  <rect x="182" y="208" width="176" height="80" rx="8" fill="#131e30"/>
  <rect x="182" y="208" width="3" height="80" rx="2" fill="url(#amber)"/>
  <text x="196" y="226" font-family="Arial, sans-serif" font-size="10" font-weight="700" fill="white">File Upload System</text>
  <text x="196" y="240" font-family="Arial, sans-serif" font-size="9" fill="#5a7a9a">S3 bucket integration</text>
  <rect x="196" y="252" width="42" height="14" rx="7" fill="#f59e0b20"/>
  <text x="217" y="262" font-family="Arial, sans-serif" font-size="8" fill="#f59e0b" text-anchor="middle">Design</text>
  <rect x="196" y="268" width="100" height="4" rx="2" fill="#1e2d45"/>
  <rect x="196" y="268" width="30" height="4" rx="2" fill="url(#amber)"/>
  <text x="300" y="274" font-family="Arial, sans-serif" font-size="8" fill="#5a7a9a">30%</text>

  <!-- Task Card 1c -->
  <rect x="182" y="298" width="176" height="76" rx="8" fill="#131e30"/>
  <rect x="182" y="298" width="3" height="76" rx="2" fill="#5a7a9a"/>
  <text x="196" y="316" font-family="Arial, sans-serif" font-size="10" font-weight="700" fill="white">Notifications Module</text>
  <text x="196" y="330" font-family="Arial, sans-serif" font-size="9" fill="#5a7a9a">Real-time alerts</text>
  <rect x="196" y="342" width="48" height="14" rx="7" fill="#06b6d420"/>
  <text x="220" y="352" font-family="Arial, sans-serif" font-size="8" fill="#06b6d4" text-anchor="middle">Frontend</text>
  <circle cx="338" cy="350" r="8" fill="#f59e0b"/>
  <text x="338" y="353.5" font-family="Arial, sans-serif" font-size="7" fill="white" text-anchor="middle">MJ</text>

  <!-- Column 2: In Progress -->
  <rect x="380" y="62" width="196" height="420" rx="10" fill="#0d1525" opacity="0.6"/>
  <rect x="380" y="62" width="196" height="36" rx="10" fill="rgba(0,212,170,0.05)"/>
  <circle cx="402" cy="80" r="5" fill="#00d4aa" filter="url(#glow)"/>
  <text x="414" y="84" font-family="Arial, sans-serif" font-size="11" font-weight="700" fill="#00d4aa">IN PROGRESS</text>
  <rect x="540" y="72" width="22" height="16" rx="8" fill="#00d4aa20"/>
  <text x="551" y="83.5" font-family="Arial, sans-serif" font-size="9" fill="#00d4aa" text-anchor="middle">3</text>

  <!-- Task Card 2a (highlighted) -->
  <rect x="390" y="108" width="176" height="102" rx="8" fill="#0f1e30"/>
  <rect x="390" y="108" width="176" height="102" rx="8" fill="none" stroke="#00d4aa" stroke-width="1" opacity="0.4"/>
  <rect x="390" y="108" width="3" height="102" rx="2" fill="url(#teal)"/>
  <text x="404" y="126" font-family="Arial, sans-serif" font-size="10" font-weight="700" fill="white">Task Board UI</text>
  <text x="404" y="140" font-family="Arial, sans-serif" font-size="9" fill="#5a7a9a">Drag &amp; drop Kanban</text>
  <text x="404" y="152" font-family="Arial, sans-serif" font-size="9" fill="#5a7a9a">with filters &amp; sorting</text>
  <rect x="404" y="162" width="48" height="14" rx="7" fill="#00d4aa20"/>
  <text x="428" y="172" font-family="Arial, sans-serif" font-size="8" fill="#00d4aa" text-anchor="middle">Frontend</text>
  <rect x="404" y="182" width="120" height="5" rx="2.5" fill="#1e2d45"/>
  <rect x="404" y="182" width="84" height="5" rx="2.5" fill="url(#teal)" filter="url(#glow)"/>
  <text x="530" y="189" font-family="Arial, sans-serif" font-size="8" fill="#00d4aa">70%</text>
  <circle cx="530" cy="170" r="8" fill="#10b981"/>
  <text x="530" y="173.5" font-family="Arial, sans-serif" font-size="7" fill="white" text-anchor="middle">SR</text>

  <!-- Task Card 2b -->
  <rect x="390" y="220" width="176" height="90" rx="8" fill="#131e30"/>
  <rect x="390" y="220" width="3" height="90" rx="2" fill="url(#green)"/>
  <text x="404" y="238" font-family="Arial, sans-serif" font-size="10" font-weight="700" fill="white">Real-time Chat</text>
  <text x="404" y="252" font-family="Arial, sans-serif" font-size="9" fill="#5a7a9a">WebSocket integration</text>
  <text x="404" y="264" font-family="Arial, sans-serif" font-size="9" fill="#5a7a9a">with message history</text>
  <rect x="404" y="274" width="120" height="5" rx="2.5" fill="#1e2d45"/>
  <rect x="404" y="274" width="54" height="5" rx="2.5" fill="url(#green)"/>
  <text x="530" y="281" font-family="Arial, sans-serif" font-size="8" fill="#10b981">45%</text>

  <!-- Task Card 2c -->
  <rect x="390" y="320" width="176" height="72" rx="8" fill="#131e30"/>
  <rect x="390" y="320" width="3" height="72" rx="2" fill="url(#purple)"/>
  <text x="404" y="338" font-family="Arial, sans-serif" font-size="10" font-weight="700" fill="white">Analytics Dashboard</text>
  <text x="404" y="352" font-family="Arial, sans-serif" font-size="9" fill="#5a7a9a">Charts &amp; team metrics</text>
  <rect x="404" y="364" width="120" height="5" rx="2.5" fill="#1e2d45"/>
  <rect x="404" y="364" width="24" height="5" rx="2.5" fill="url(#purple)"/>
  <text x="530" y="371" font-family="Arial, sans-serif" font-size="8" fill="#8b5cf6">20%</text>
  <circle cx="530" cy="338" r="8" fill="#8b5cf6"/>
  <text x="530" y="341.5" font-family="Arial, sans-serif" font-size="7" fill="white" text-anchor="middle">LP</text>

  <!-- Column 3: Done -->
  <rect x="588" y="62" width="196" height="420" rx="10" fill="#0d1525" opacity="0.6"/>
  <rect x="588" y="62" width="196" height="36" rx="10" fill="rgba(16,185,129,0.04)"/>
  <circle cx="610" cy="80" r="5" fill="#10b981"/>
  <!-- Checkmark -->
  <polyline points="607,80 609.5,82.5 613,77" stroke="#10b981" stroke-width="1.5" fill="none"/>
  <text x="622" y="84" font-family="Arial, sans-serif" font-size="11" font-weight="700" fill="#10b981">DONE</text>
  <rect x="742" y="72" width="22" height="16" rx="8" fill="#10b98120"/>
  <text x="753" y="83.5" font-family="Arial, sans-serif" font-size="9" fill="#10b981" text-anchor="middle">5</text>

  <!-- Task Card 3a -->
  <rect x="598" y="108" width="176" height="80" rx="8" fill="#131e30"/>
  <rect x="598" y="108" width="3" height="80" rx="2" fill="url(#green)"/>
  <text x="612" y="126" font-family="Arial, sans-serif" font-size="10" font-weight="700" fill="#6b7a8d">DB Schema Design</text>
  <text x="612" y="140" font-family="Arial, sans-serif" font-size="9" fill="#4a5568">SQLAlchemy ORM models</text>
  <text x="612" y="152" font-family="Arial, sans-serif" font-size="9" fill="#4a5568">relationships mapped</text>
  <!-- Done check -->
  <circle cx="752" cy="128" r="8" fill="#10b98130"/>
  <polyline points="748,128 750.5,130.5 756,124" stroke="#10b981" stroke-width="1.5" fill="none"/>
  <rect x="612" y="162" width="46" height="14" rx="7" fill="#10b98115"/>
  <text x="635" y="172" font-family="Arial, sans-serif" font-size="8" fill="#10b981" text-anchor="middle">Backend</text>

  <!-- Task Card 3b -->
  <rect x="598" y="198" width="176" height="78" rx="8" fill="#131e30"/>
  <rect x="598" y="198" width="3" height="78" rx="2" fill="url(#green)"/>
  <text x="612" y="216" font-family="Arial, sans-serif" font-size="10" font-weight="700" fill="#6b7a8d">User Auth Flow</text>
  <text x="612" y="230" font-family="Arial, sans-serif" font-size="9" fill="#4a5568">Login, register, roles</text>
  <circle cx="752" cy="216" r="8" fill="#10b98130"/>
  <polyline points="748,216 750.5,218.5 756,212" stroke="#10b981" stroke-width="1.5" fill="none"/>
  <rect x="612" y="242" width="46" height="14" rx="7" fill="#10b98115"/>
  <text x="635" y="252" font-family="Arial, sans-serif" font-size="8" fill="#10b981" text-anchor="middle">Backend</text>
  <circle cx="752" cy="248" r="8" fill="#6366f1"/>
  <text x="752" y="251.5" font-family="Arial, sans-serif" font-size="7" fill="white" text-anchor="middle">AK</text>

  <!-- Task Card 3c -->
  <rect x="598" y="286" width="176" height="78" rx="8" fill="#131e30"/>
  <rect x="598" y="286" width="3" height="78" rx="2" fill="url(#green)"/>
  <text x="612" y="304" font-family="Arial, sans-serif" font-size="10" font-weight="700" fill="#6b7a8d">Project CRUD API</text>
  <text x="612" y="318" font-family="Arial, sans-serif" font-size="9" fill="#4a5568">FastAPI endpoints tested</text>
  <circle cx="752" cy="304" r="8" fill="#10b98130"/>
  <polyline points="748,304 750.5,306.5 756,300" stroke="#10b981" stroke-width="1.5" fill="none"/>
  <rect x="612" y="330" width="42" height="14" rx="7" fill="#10b98115"/>
  <text x="633" y="340" font-family="Arial, sans-serif" font-size="8" fill="#10b981" text-anchor="middle">API</text>
  <circle cx="752" cy="336" r="8" fill="#10b981"/>
  <text x="752" y="339.5" font-family="Arial, sans-serif" font-size="7" fill="white" text-anchor="middle">SR</text>

  <!-- Bottom Stats Bar -->
  <rect x="160" y="450" width="640" height="50" fill="#0b1220" opacity="0.9"/>
  <rect x="160" y="450" width="640" height="1" fill="#1e2d45"/>

  <text x="188" y="470" font-family="Arial, sans-serif" font-size="9" fill="#5a7a9a">SPRINT PROGRESS</text>
  <rect x="188" y="476" width="160" height="8" rx="4" fill="#1e2d45"/>
  <rect x="188" y="476" width="112" height="8" rx="4" fill="url(#teal)"/>
  <text x="356" y="484" font-family="Arial, sans-serif" font-size="10" fill="#00d4aa" font-weight="700">70%</text>

  <rect x="420" y="463" width="1" height="24" fill="#1e2d45"/>

  <text x="440" y="470" font-family="Arial, sans-serif" font-size="9" fill="#5a7a9a">TASKS DONE</text>
  <text x="440" y="487" font-family="Arial, sans-serif" font-size="16" fill="white" font-weight="700">5 <tspan font-size="10" fill="#5a7a9a">/ 12</tspan></text>

  <rect x="560" y="463" width="1" height="24" fill="#1e2d45"/>

  <text x="580" y="470" font-family="Arial, sans-serif" font-size="9" fill="#5a7a9a">TEAM VELOCITY</text>
  <text x="580" y="487" font-family="Arial, sans-serif" font-size="16" fill="#10b981" font-weight="700">↑ 24%</text>

  <rect x="700" y="463" width="1" height="24" fill="#1e2d45"/>
  <text x="718" y="470" font-family="Arial, sans-serif" font-size="9" fill="#5a7a9a">DAYS LEFT</text>
  <text x="718" y="487" font-family="Arial, sans-serif" font-size="16" fill="#f59e0b" font-weight="700">8</text>

  <!-- Subtle grid lines -->
  <line x1="375" y1="62" x2="375" y2="450" stroke="#1e2d45" stroke-width="1" opacity="0.5"/>
  <line x1="583" y1="62" x2="583" y2="450" stroke="#1e2d45" stroke-width="1" opacity="0.5"/>
</svg>
